<?xml version="1.0" encoding="utf-8"?>
<!-- Generator: Adobe Illustrator 16.0.0, SVG Export Plug-In . SVG Version: 6.00 Build 0)  -->
<!DOCTYPE svg PUBLIC "-//W3C//DTD SVG 1.1//EN" "http://www.w3.org/Graphics/SVG/1.1/DTD/svg11.dtd">
<svg version="1.1" id="Layer_1" xmlns="http://www.w3.org/2000/svg" xmlns:xlink="http://www.w3.org/1999/xlink" x="0px" y="0px"
	 width="500px" height="250px" viewBox="0 0 500 250" enable-background="new 0 0 500 250" xml:space="preserve">
<polygon fill="#FFFFFF" stroke="#2E3192" stroke-miterlimit="10" points="142.192,152.5 240.482,66.5 402.529,66.5 303.354,152.5 
	"/>
<circle fill="none" stroke="#C1272D" stroke-miterlimit="10" cx="240.272" cy="66.307" r="3.184"/>
<circle fill="none" stroke="#C1272D" stroke-miterlimit="10" cx="141.851" cy="152.57" r="3.184"/>
<circle fill="none" stroke="#C1272D" stroke-miterlimit="10" cx="303.378" cy="152.149" r="3.185"/>
<path fill="none" stroke="#FCEE21" stroke-miterlimit="10" d="M315.672,109.456c0,23.742-19.25,42.991-42.99,42.991
	c-23.743,0-42.991-19.25-42.991-42.991c0-23.745,19.248-42.99,42.991-42.99C296.422,66.466,315.672,85.71,315.672,109.456z"/>
<text transform="matrix(1 0 0 1 229.5 56.75)"><tspan x="0" y="0" font-family="'MyriadPro-Regular'" font-size="4">x: 240,27px</tspan><tspan x="0" y="4.8" font-family="'MyriadPro-Regular'" font-size="4">y: 66,31px</tspan></text>
<text transform="matrix(1 0 0 1 134.75 161.375)"><tspan x="0" y="0" font-family="'MyriadPro-Regular'" font-size="4">x: 141,85px</tspan><tspan x="0" y="4.8" font-family="'MyriadPro-Regular'" font-size="4">y: 152,57px</tspan></text>
<text transform="matrix(1 0 0 1 294.375 161.375)"><tspan x="0" y="0" font-family="'MyriadPro-Regular'" font-size="4">x: 303,38px</tspan><tspan x="0" y="4.8" font-family="'MyriadPro-Regular'" font-size="4">y: 152,15px</tspan></text>
<text transform="matrix(1 0 0 1 394.125 56.75)"><tspan x="0" y="0" font-family="'MyriadPro-Regular'" font-size="4">x: 402,43px</tspan><tspan x="0" y="4.8" font-family="'MyriadPro-Regular'" font-size="4">y: 66,5px</tspan></text>
</svg>
