<?xml version="1.0" encoding="utf-8"?>
<!-- Generator: Adobe Illustrator 16.0.0, SVG Export Plug-In . SVG Version: 6.00 Build 0)  -->
<!DOCTYPE svg PUBLIC "-//W3C//DTD SVG 1.1//EN" "http://www.w3.org/Graphics/SVG/1.1/DTD/svg11.dtd">
<svg version="1.1" id="Layer_1" xmlns="http://www.w3.org/2000/svg" xmlns:xlink="http://www.w3.org/1999/xlink" x="0px" y="0px"
	 width="423.289px" height="115.4px" viewBox="73.971 146.637 423.289 115.4" enable-background="new 73.971 146.637 423.289 115.4"
	 xml:space="preserve">
<g>
	<path fill="#FFFFFF" d="M112.926,224.678h15.698v5.957c0,19.912-5.667,31.402-27.325,31.402c-21.659,0-27.328-13.086-27.328-31.402
		v-41.281c0-18.312,5.669-31.391,27.328-31.391c21.658,0,27.325,13.078,27.325,31.391v2.327h-15.698v-2.327
		c0-11.041-0.581-18.894-11.627-18.894c-11.049,0-11.628,7.853-11.628,18.894v41.281c0,12.646,2.325,18.896,11.628,18.896
		c9.302,0,11.627-6.25,11.627-18.896V224.678z"/>
	<path fill="#FFFFFF" d="M174.608,146.637h17.115l-17.604,114.092h-17.115L174.608,146.637z"/>
	<path fill="#FFFFFF" d="M298.732,171.627h-3.482l-16.28,89.243h-25.15l-16.28-89.243h-3.486v89.243h-15.698V159.121h32.119
		l15.269,89.104h1.308l15.26-89.104h32.12V260.87h-15.697v-89.243H298.732z"/>
	<path fill="#FFFFFF" d="M329.027,260.87V159.121h15.699V260.87H329.027L329.027,260.87z"/>
	<path fill="#FFFFFF" d="M428.028,260.87h-29.065l-21.227-89.243h-2.76v89.243h-15.697V159.121h30.957l20.204,89.104h1.887v-89.104
		h15.701V260.87L428.028,260.87z"/>
	<path fill="#FFFFFF" d="M469.936,159.121c21.661,0,27.324,13.227,27.324,31.4v38.955c0,19.912-5.663,31.394-27.324,31.394H442.61
		V159.121H469.936z M481.562,190.521c0-11.05-0.577-18.754-11.627-18.754h-11.628v76.604h11.628c9.305,0,11.627-6.254,11.627-18.896
		V190.521z"/>
</g>
</svg>
